<svg version="1" xmlns="http://www.w3.org/2000/svg" width="666.667" height="666.667" viewBox="0 0 500.000000 500.000000"><path d="M219.3 48.3c-16.4 15-47.6 43.5-69.3 63.2-83.3 75.8-91 82.9-90.1 83.8.6.6 4.1.6 8.8 0 4.3-.6 7.9-.6 8.1-.2.2.5 1.3.9 2.4.9 1.1 0 1.8.5 1.5 1.2-.2.7-1.5 1.2-2.8 1.1-11.4-1.1-16.5-.7-20 1.4-2 1.3-4.4 2.3-5.3 2.3-.8 0-3 1.3-4.8 2.9l-3.3 2.9 6 .8c5.7.7 7.5.7 13.5.2 1.4-.1 3.4 0 4.6.3 2 .4 35.5-32.1 155.6-151 21.3-21.1 25-24.3 26.1-23.1.8.8 9.5 10.3 19.3 21 9.9 10.7 42.2 45.8 71.8 78 29.6 32.2 61.1 66.4 70 76 8.8 9.6 17.9 19.5 20.2 22 2.2 2.5 9.4 10.3 15.9 17.5l11.8 13-11.3 10.7c-8.6 8.2-12.2 10.9-14.9 11.5-2 .4-4.2.6-4.8.5-.7-.2-1.3.2-1.3.9 0 .6-.7.8-1.6.5-.9-.4-2.2-.2-2.8.3-.6.5-5.3 1.6-10.3 2.5-5.1.8-10.6 2.2-12.2 3.1-1.7.8-5.5 2.2-8.6 3-5.2 1.3-6 1.3-10.4-.5-2.7-1-5.8-1.6-7-1.3-1.3.3-2.1.1-2.1-.6s-.5-.9-1-.6c-.9.6-3.8-.1-11.5-2.8-3.8-1.4-7.7-3.9-17.9-11.7-2.9-2.3-4.2-2.7-5.6-2-1.2.6-2.9.6-4.9-.1-3.6-1.3-7.2-.6-11.9 2.3-3.5 2.1-3.5 4.6 0 2.7 1.8-1 2-.9 1.5.5-.8 2 1.1 2 3.7.1 1-.8 2.2-1.2 2.7-1 .4.3 1 .1 1.3-.3.8-1.3 7.7-.4 10.2 1.3 1.2.8 2.2 2 2.1 2.7-.1 3.4.5 4.7 2.3 5.3 1.1.3 2 1.3 2 2.1s-.4 1.3-.9 1c-.5-.3-1.1 0-1.4.7-.2.7-1.6 1.3-3.1 1.5-1.4.1-4.2.9-6.2 1.7-2 .8-4.5 1.5-5.5 1.5s-2 .4-2.3.9c-.7 1.1 1.9 6.3 2.7 5.4.4-.3 1.3 0 2.1.7 1.9 1.5 8.6 1.6 9.5.1.8-1.3 5.1-.3 5.1 1.2 0 .6.2.8.6.5.3-.3 2.2-.2 4.2.3 2 .4 8 .9 13.2 1 5.2.1 12.4.5 15.9 1 4.1.6 6.8.6 7.6-.1.6-.5 1.5-.7 1.8-.3.4.3.7-.5.7-1.9 0-1.5.6-2.5 1.5-2.5.8 0 1.5.6 1.5 1.3 0 .8.6 1.1 1.7.7 1.2-.5 1.4-.3.8.7-.6 1-.4 1.2 1 .6 1-.3 3.3-.2 5.1.4 2.2.8 4.4.8 6.8.1 3.3-.9 3.5-.8 2.6.9-.5.9-29.4 29.8-64.2 64.1-85.3 84-92.3 90.9-93 90.9-.4 0-21.3-22.6-46.5-50.2-25.2-27.7-48.7-53.5-52.4-57.3-3.6-3.9-18.2-19.8-32.4-35.5S90.9 287.3 85 281c-5.9-6.3-17.1-18.5-25-27-7.9-8.5-14.7-15.7-15.2-15.8-1.9-.8-.4-3.1 6.5-9.7 3.9-3.8 6.8-6.7 6.3-6.3-.6.5-1.6.8-2.3.8-.7 0-2.2.9-3.4 2.1-1.1 1.1-2.5 1.9-3.1 1.7-.6-.2-2.1.6-3.2 1.7-1.2 1.2-3.1 2.7-4.1 3.3-1.6.9-1.8 1.3-.7 2.3.6.7 1.2 1.9 1.2 2.7 0 1.2-.4 1.1-2.5-.2-3-2-3.9-2-3.1-.1.3.9-.1 1.6-.9 1.6-.8.1-2 .2-2.6.3-.5 0-2 1-3.2 2.1-1.2 1.2-3.2 2-4.4 1.9-1.3-.1-2.3.4-2.3 1s7.7 8.8 17 18.1c13.2 13.2 17.6 17 19.8 17.1 1.5.1 5.7.2 9.5.3 3.7.1 6.7.5 6.7 1.1 0 .6-3 1-7 1-6 0-7 .3-7 1.7 0 1 15.6 17.5 34.8 36.8 19.1 19.2 44.4 44.9 56.2 57 11.9 12.1 39.1 39.8 60.6 61.6l39 39.6 53.5-49.1c67.6-62 115.7-105.8 123.4-112.5 6.2-5.4 10.3-8.3 9.1-6.2-.5.7.1 1 1.6.7 1.3-.3 2.3-.5 2.3-.6 0-.1 1-.3 2.3-.4 2.5-.3 3 .9.7 1.8-.8.3-1.5 1.2-1.5 2.1 0 1.3 1 1.5 4.8 1.3 2.6-.2 5-.8 5.4-1.3.5-.6.8-.5.8.3 0 1.5 4 .7 5.1-1 .3-.5 1.5.2 2.7 1.6 2.1 2.8 4.2 3.4 4.2 1.3 0-.9.2-.9.9.1.6 1 3.9 1.3 12.2 1.3 6.3.1 13.3.4 15.7.9l4.2.7v-63.3l-4.4-.3c-3-.1-4.9.3-6.1 1.5-.9.9-2.9 1.8-4.4 2-3.2.4-10.4-6.9-162-162.4C282.8 54.9 249.6 21 249.4 21c-.1 0-13.7 12.3-30.1 27.3zM470.5 282c-2 3.9-2 4.2 1.5 7.6 3.3 3.2 3.7 4.4 1.6 4.4-.7 0-1.6-.8-1.9-1.9-.4-1.5-1.3-1.8-6.1-1.7-3.1.1-5.6-.2-5.6-.7 0-1.1 2.6-3.7 3.7-3.7.5 0 2.4-1.6 4.3-3.5s3.5-3.5 3.7-3.5c.2 0-.3 1.3-1.2 3zm7.5.6c0 .8-.4 1.2-1 .9-.5-.3-1-1.3-1-2.1s.5-1.2 1-.9c.6.3 1 1.3 1 2.1zm-127.9 8.7c-1 .9-1.1.8-.5-.6.3-1 .9-1.5 1.2-1.2.3.3 0 1.1-.7 1.8zm4.9-1.3c0 .5-.4 1-1 1-.5 0-1-.5-1-1 0-.6.5-1 1-1 .6 0 1 .4 1 1zm122.7 1c.1 1.1-.2 1.8-.8 1.5-1.1-.7-1.2-3.5-.1-3.5.4 0 .8.9.9 2zm7.1 4.2c-.2.6-1 1.4-1.6 1.6-.7.2-1-.2-.6-1.2.7-1.8 2.8-2.2 2.2-.4zM464 311.4c0 .3-.4.8-1 1.1-.5.3-1 .1-1-.4 0-.6.5-1.1 1-1.1.6 0 1 .2 1 .4z"/><path d="M235.3 82c-5.7 1.2-11.6 4.4-14.7 8-4.5 5.5-5.8 12.3-5.4 29.3.3 14.6.4 15.5 3.3 21.2 2.6 5.2 3.7 6.3 8.5 8.7 10 4.9 31.4 5.8 45.2 1.8 10.8-3.1 15.8-14 15.8-34 0-22.4-6-32.2-21.4-34.9-7.1-1.3-25.1-1.3-31.3-.1zM235.1 185.1c-6.1 1.2-12.8 4.6-15 7.7-1 1.5-2.6 5.2-3.5 8.2-1.5 4.9-1.7 14.8-1.7 92.6 0 85.3 0 87.2 2 92.9 2.6 7.4 6 10.9 13 13.7 4.8 1.9 7.6 2.2 20.6 2.2 23.1.1 30.5-3.1 35-15.4 1.9-5.3 2-8 2-94.5 0-88.7 0-89-2.1-93.5-3.6-7.7-8-11-17.9-13.6-5.6-1.5-25.4-1.7-32.4-.3zM314 303.1c0 .5.6.9 1.3.9.6 0 2.2.3 3.5.6 1.6.5 2.2.2 2.2-.9 0-1-1-1.5-3.5-1.5-1.9 0-3.5.4-3.5.9zM428.5 441.1c-1.6.4-2.5.7-2 .9 1.4.2-2.6 1.8-4.8 1.9-1 .1-1.5-.4-1.2-.9.3-.6.1-1-.4-1-.6 0-1.1.4-1.1 1 0 .5-.9 1-2 1s-2 .4-2 1c0 .5.6 1 1.4 1 .8 0 1.6.6 1.9 1.4.4 1-.3 1.4-2.9 1.3-1.9-.1-3.4-.5-3.4-.9s.5-.8 1-.8c.6 0 1-.4 1-.9 0-.6-1.4-.5-3.2.2-2.3.8-2.8 1.2-1.5 1.5.9.2 1.7.8 1.7 1.3 0 .6-.5.7-1 .4-.6-.3-1.7 0-2.5.8-1.3 1.3-1.3 1.6.1 2.1 2.2.9 2.6.7 1.8-.5-.4-.8 0-.8 1.5 0 2.9 1.6 3 7.1.1 7.1-1.2 0-1.7-.5-1.4-1.4.3-.8.1-1.7-.5-2-.6-.4-1.3.5-1.7 1.9-.7 2.9-4 3.5-4 .6 0-1 .7-1.8 1.5-1.7.8.1 1.7-.7 1.9-1.7.2-1.1-.3-1.7-1.4-1.7-1 0-1.5.3-1.1.6.7.7-6 4.4-8 4.4-1.8 0-2.7 4.4-1.4 6.8 1.5 2.8 1.4 3.1-.9 2.5-1.6-.4-2 0-2 2.2 0 1.5.9 3.6 2 4.5 1.2 1 1.9 2.4 1.8 3.1-.3 1.4.7 1.5 4.7.8 1.2-.2 1.9.1 1.8.8-.2.7.4 1 1.2.7 1-.4 1.5 0 1.5 1 0 1.2.7 1.5 2.5 1.2 2-.4 2.5-.1 2.5 1.5 0 2.1 1.5 2.6 2.6.8.4-.8.9-.7 1.5.2.7 1.1.9 1 .9-.4 0-.9.5-1.7 1.1-1.7.5 0 .7.5.3 1.2-.5.8-.2.9.9.5 1-.3 1.7-.2 1.7.3 0 .6.5 1 1 1 .6 0 1-.7 1-1.5 0-2.7 1.7-1.6 2.8 1.7.5 1.8 1 2.5 1.1 1.5.1-2.1 2-2.2 4.9-.1 1.3.9 3 1.3 4 .9 1-.3 1.2-.9.7-1.3-.9-.6-1.8-2.2-4.3-7.5-.2-.5.5-.3 1.7.5 1.2.7 1.9 1.9 1.6 2.5-.6 1.6 1.1 1.7 2.1.2 1.2-2 2.3 1.2 1.3 3.8-.7 2-.6 2.3.8 2.1 1-.2 1.8.3 1.8.9 0 2.2 2 1.5 2.7-.9.5-1.8.6-1.5.7 1.4.1 2.1.6 3.8 1.2 3.8.5 0 .7-.5.4-1-.4-.6 1.2-2.8 3.3-4.9 2.2-2.2 3.7-4.2 3.4-4.5-.3-.3 0-.6.8-.6 1 0 1-.3 0-1.5-.9-1-.9-1.5-.1-1.6 3.9-.5 4.9-1.5 4.3-4.5-.3-1.9-.7-2.2-1.3-1.2-.6.9-.9.3-.9-1.7 0-2.2-.3-2.6-1-1.5-1.2 1.9-2.1.9-2.5-2.7-.2-1.5-.7-4-1-5.5-.6-2.3-.3-2.9 2.4-4.2 1.7-.9 3.3-1.6 3.6-1.6.3 0 1.3-.4 2.3-.9 1-.6 1.2-1.1.4-1.1-1.4 0-7.2-5.6-7.2-6.9 0-.8-5.5-3.5-7.5-3.6-.5-.1-.9-.6-.8-1.2.1-.6-.8-1.1-2-1.1s-3.8-.2-5.7-.4c-1.9-.2-4.8-.1-6.5.3zm-9.8 14.1c-.3.8-.6.5-.6-.6-.1-1.1.2-1.7.5-1.3.3.3.4 1.2.1 1.9zm5.4-.2c.6 0 .7-.6.3-1.3-.5-.9-.4-.9.6 0 .8.7 1.1 1.6.7 1.9-1 1-3.7-.4-3.6-1.8 0-1 .2-1 .6-.1.2.7.9 1.3 1.4 1.3zm-4.4 6.2c.1 1.2-.1 1.8-.5 1.3-.4-.6-1.3-1-1.9-1.1-2.8-.2-3.3-.4-3.3-1.4 0-.6.6-1.7 1.3-2.4 1-1.2 1.4-1.2 2.7 0 .9.7 1.6 2.3 1.7 3.6zM430 457c0 .5-.2 1-.4 1-.3 0-.8-.5-1.1-1-.3-.6-.1-1 .4-1 .6 0 1.1.4 1.1 1zm6.7 1.2c-.3.8-.6.5-.6-.6-.1-1.1.2-1.7.5-1.3.3.3.4 1.2.1 1.9zm-34.1.4c-.3.9-.6 2.1-.7 2.7 0 .7-.4.3-.8-.8-.9-2.2-.5-3.5 1.1-3.5.5 0 .7.7.4 1.6zm21.9 5.4c.3.5.1 1-.4 1-.6 0-1.1-.5-1.1-1 0-.6.2-1 .4-1 .3 0 .8.4 1.1 1zm-3.5 1c0 .5-.7.7-1.5.4-.8-.4-1.5-.8-1.5-1 0-.2.7-.4 1.5-.4s1.5.4 1.5 1zm10 18c0 .5-.4 1-1 1-.5 0-1-.5-1-1 0-.6.5-1 1-1 .6 0 1 .4 1 1zM497 451.8c-1.6.7-2 3.5-.7 4.8.4.4.7 0 .7-.8 0-.9.7-1.8 1.5-2.2.8-.3 1.5-1 1.5-1.6 0-1.1-.8-1.2-3-.2zM465.2 459.2c.5 1.5 2.8 2.3 2.8 1 0-.5-.7-1.3-1.6-1.6-1-.4-1.4-.1-1.2.6zM489 461.5c0 1.8-1.2 1.9-2.7.4-.7-.7-2.4-.8-4.2-.4-2.7.6-3 1-2.7 3.5.2 1.6-.2 3.1-.8 3.4-.6.2-.3.5.7.5.9.1 1.7.8 1.7 1.7 0 1.1-.6 1.5-1.9 1.1-1.1-.3-2.8.1-3.9.9-1.1.7-2.2 1.1-2.4.8-.3-.3-.8.2-1.2 1.1-.5 1.3-.1 1.5 1.7 1 2.1-.6 2.1-.5.4.9-1.2.9-1.4 1.6-.8 2.1.6.3 1.1 1.2 1 1.8 0 .9-.2.9-.5.1-.5-1.3-4.4-.7-4.4.7 0 .5.7.6 1.6.2 1.4-.5 1.5-.3.5 1.5-.6 1.2-.7 2.3-.2 2.6.5.3 1.1-.3 1.4-1.4.3-1.2 1.4-2 2.6-2 1.8 0 2 .3 1.1 1.9-1.4 2.7-1.3 3 1 2.4 1.1-.3 2-1.2 2-1.9 0-.8.6-1.4 1.3-1.4 1.5 0 3.6-2.4 5.6-6.2.7-1.5 2.6-3.2 4.2-3.8 3.3-1.4 5-4.4 1.9-3.6-1.1.3-2.8.8-3.9 1.1-1.2.4-2.1 0-2.5-1.1-.8-2.2.1-3.4 2.7-3.4 1.7 0 2.2-.6 2.4-3 .1-1.7-.2-3-.7-3-.6 0-1 .7-1 1.5zm-7.7 15.2c-.7.2-1.3 1.1-1.3 1.9 0 .8-.9 1.4-2 1.4-2.3 0-1.7-2.7.8-3.3 2.4-.6 4-.6 2.5 0zM471.7 461.7c-.4.3-.7 1.1-.7 1.7 0 .6.5.5 1.2-.2.6-.6.9-1.4.7-1.7-.3-.3-.9-.2-1.2.2z"/><path d="M465 464c-1.3 1.1-1.8 2-1.2 2 .7 0 1.2.8 1.2 1.7 0 1.4-.2 1.5-.9.4-.6-1-1-1-1.6-.1-.5.8-1 .6-1.9-.5-1.1-1.5-1.3-1.5-2.5-.1-1.1 1.3-1.1 1.7.3 2.2.9.3 1.4 1 1.1 1.4-1.5 2.5 8.6 3.8 10.6 1.4.9-1.1.8-1.4-.4-1.4-1.6 0-1.3-3.5.4-4.6 1.7-1 3.1.7 1.8 2.2-.9 1.1-.7 1.4.9 1.4 1.7 0 2.1-.6 1.9-3-.2-2.4-.5-2.8-2.3-2.4-1.2.3-2.8-.1-3.6-1-1.4-1.4-1.8-1.3-3.8.4zM497.9 462.7c-.1.5-.1 1.2 0 1.6.1.5-.3.6-.9.2-.6-.3-2-.3-3.2.1-1.7.5-1.9.8-.6 1.5 2.3 1.3 5.8-.1 5.8-2.2 0-1.8-.9-2.7-1.1-1.2zM456 464c0 .5.7 1 1.6 1 .8 0 1.2-.5.9-1-.3-.6-1-1-1.6-1-.5 0-.9.4-.9 1z"/><path d="M460.5 465c.3.5.8 1 1.1 1 .2 0 .4-.5.4-1 0-.6-.5-1-1.1-1-.5 0-.7.4-.4 1zM497.9 474c-.1.8-.1 1.8 0 2.2 0 .4-1.3.5-2.9.1-2.6-.5-3-.3-3 1.6 0 1.4-.9 2.5-2.5 3.1-1.6.6-2.3 1.4-1.9 2.5.6 1.5 2.4 2.1 2.4.7 0-.4.9-1.3 2-2 2.9-1.8 2.7.6-.3 3.8-2.6 2.8-4.2 8.3-2.3 7.7.6-.2 1.2-1.3 1.4-2.5.2-1.3 1.1-2.2 2.1-2.2s2.1-.3 2.5-.7c.4-.4 1.5-.8 2.4-.8 1.4 0 1.8-1.2 2-6.4.2-3.6-.2-6.9-.7-7.4-.8-.8-1.1-.7-1.2.3zm.5 10.5c-.4.8-.8 1.5-1 1.5-.2 0-.4-.7-.4-1.5s.4-1.5 1-1.5c.5 0 .7.7.4 1.5zM458.5 475c.3.5.8 1 1.1 1 .2 0 .4-.5.4-1 0-.6-.5-1-1.1-1-.5 0-.7.4-.4 1zM464.5 476c-.4.6-.4 1-.1 1 .2 0 1.1.3 2 .6.9.3 1.6.2 1.6-.4 0-1.4-2.8-2.3-3.5-1.2zM390.5 478c.3.5.8 1 1.1 1 .2 0 .4-.5.4-1 0-.6-.5-1-1.1-1-.5 0-.7.4-.4 1zM400.1 480.6c0 1.1.3 1.4.6.6.3-.7.2-1.6-.1-1.9-.3-.4-.6.2-.5 1.3zM452 485.9c-1.3 2.5-1.3 6.1.1 6.1.5 0 .7-.6.4-1.3-.4-.6 0-.4.8.6 1.5 1.8 3.3 2.4 2.2.8-.3-.5.2-1.7 1.1-2.5 1.7-1.8 3.4-2.1 3.4-.7 0 1.2 3.3.7 3.7-.5.3-.9-7.2-4.4-9.4-4.4-.7 0-1.7.9-2.3 1.9zM465.1 491.8c0 1.5.3 2.1.6 1.4.7-1.8 2.3-1.4 2 .5-.4 2.8-1.6 4.3-3.1 3.7-.7-.3-1.6.1-1.9.8-.3 1 .5 1.4 2.9 1.5 1.9 0 3.4-.2 3.5-.6 1-6.1.7-7.9-1.7-8.9-2.2-1.1-2.4-1-2.3 1.6zM495.9 490.7c-1.1 1.5-1.1 1.6 0 .6.7-.6 2-.9 2.7-.6.8.3 1.4 0 1.4-.6 0-1.7-2.6-1.3-4.1.6zM484.6 490.8c-.2.4-.1 1.4.5 2.2.7 1.3.9 1.2.9-.2 0-.9.6-1.9 1.3-2.1.7-.3.6-.6-.5-.6-.9-.1-1.9.3-2.2.7zM430.6 492.8c-.7 2.1-.3 4.9.9 5.9.4.4.5.1.1-.7-.4-.8 0-.6.9.5 1.3 1.6 1.7 1.7 2.4.6 1.1-1.7.4-4-2-6.3-1.7-1.7-1.8-1.7-2.3 0z"/><path d="M492.3 492.5c-.3.9-.3 1.8-.1 2.1.3.3.8-.4 1.1-1.6.6-2.3-.1-2.7-1-.5zM458 493.1c0 .5.5.7 1 .4.6-.3 1-.8 1-1.1 0-.2-.4-.4-1-.4-.5 0-1 .5-1 1.1zM497 494c0 .5.7 1 1.6 1 .8 0 1.2-.5.9-1-.3-.6-1-1-1.6-1-.5 0-.9.4-.9 1zM436.3 497.7c0 1.9.5 2.3 2.8 2.3 2.2 0 2.9-.5 2.9-1.9 0-1.3-.9-2-2.9-2.3-2.4-.4-2.8-.1-2.8 1.9zM483.7 495.6c-.8.9 1.5 4.4 3 4.4 1.2 0 1.2-1.7 0-3.8-.9-1.3-2-1.6-3-.6zM384.5 498c.3.5 1.3 1 2.1 1s1.2-.4.9-1c-.3-.6-1.3-1-2.1-1s-1.2.4-.9 1zM426.5 499c.3.5.8 1 1.1 1 .2 0 .4-.5.4-1 0-.6-.5-1-1.1-1-.5 0-.7.4-.4 1z"/></svg>